HIERARCHY
ROOT Hips
{
  OFFSET -69.4423 88.0299 51.6846
  CHANNELS 6 Xposition Yposition Zposition Zrotation Xrotation Yrotation
  JOINT Spine
  {
    OFFSET 12.0259 -0.162853 1.93176e-005
    CHANNELS 3 Zrotation Xrotation Yrotation
    JOINT Spine1
    {
      OFFSET 15.3169 -0.0121909 0
      CHANNELS 3 Zrotation Xrotation Yrotation
      JOINT Spine2
      {
        OFFSET 15.3176 -0.0121922 0
        CHANNELS 3 Zrotation Xrotation Yrotation
        JOINT Neck
        {
          OFFSET 19.9142 1.56236 0
          CHANNELS 3 Zrotation Xrotation Yrotation
          JOINT Head
          {
            OFFSET 6.92646 0 0
            CHANNELS 3 Zrotation Xrotation Yrotation
            End Site
            {
              OFFSET 20.7666 0 0
            }
          }
          JOINT LeftShoulder
          {
            OFFSET -4.94072 -1.14703 8.14416
            CHANNELS 3 Zrotation Xrotation Yrotation
            JOINT LeftArm
            {
              OFFSET 14.108 0 -2.74767e-005
              CHANNELS 3 Zrotation Xrotation Yrotation
              JOINT LeftForeArm
              {
                OFFSET 28.5802 -0.0783412 -0.0284884
                CHANNELS 3 Zrotation Xrotation Yrotation
                JOINT LeftHand
                {
                  OFFSET 27.092 0 0
                  CHANNELS 3 Zrotation Xrotation Yrotation
                  End Site
                  {
                    OFFSET 9.55928 -0.186424 0.145352
                  }
                }
              }
            }
          }
          JOINT RightShoulder
          {
            OFFSET -7.15748 -1.33027 -6.24935
            CHANNELS 3 Zrotation Xrotation Yrotation
            JOINT RightArm
            {
              OFFSET 14.108 0 1.82997e-005
              CHANNELS 3 Zrotation Xrotation Yrotation
              JOINT RightForeArm
              {
                OFFSET 28.5802 -0.0707221 2.30684e-005
                CHANNELS 3 Zrotation Xrotation Yrotation
                JOINT RightHand
                {
                  OFFSET 27.092 0 -1.30073e-005
                  CHANNELS 3 Zrotation Xrotation Yrotation
                  End Site
                  {
                    OFFSET 9.55929 -0.186417 -0.145354
                  }
                }
              }
            }
          }
        }
      }
    }
  }
  JOINT LeftUpLeg
  {
    OFFSET 0.00499725 -0.534999 8.837
    CHANNELS 3 Zrotation Xrotation Yrotation
    JOINT LeftLeg
    {
      OFFSET 39.9035 -0.00124594 0.000252775
      CHANNELS 3 Zrotation Xrotation Yrotation
      JOINT LeftFoot
      {
        OFFSET 39.6689 0 0
        CHANNELS 3 Zrotation Xrotation Yrotation
        JOINT LeftToe
        {
          OFFSET 10.1624 13.6296 0
          CHANNELS 3 Zrotation Xrotation Yrotation
          End Site
          {
            OFFSET 8.38147 0 0
          }
        }
      }
    }
  }
  JOINT RightUpLeg
  {
    OFFSET 0.00499725 -0.535 -8.837
    CHANNELS 3 Zrotation Xrotation Yrotation
    JOINT RightLeg
    {
      OFFSET 39.9036 -0.000268477 0.000106433
      CHANNELS 3 Zrotation Xrotation Yrotation
      JOINT RightFoot
      {
        OFFSET 39.6689 1.17892e-005 0
        CHANNELS 3 Zrotation Xrotation Yrotation
        JOINT RightToe
        {
          OFFSET 10.1624 13.6296 0
          CHANNELS 3 Zrotation Xrotation Yrotation
          End Site
          {
            OFFSET 8.38147 0 0
          }
        }
      }
    }
  }
}
MOTION
Frames:	18
Frame Time:	0.0333333
-53.5853 88.123 -67.5025 90.0156 0.708406 5.69095 1.48952 1.29361 0.100596 2.9779 2.58988 0.167704 2.97791 2.58988 0.167694 -10.1076 7.97428 -7.86465 60.6553 11.4856 -2.02691 -170.056 8.46201 -92.5602 -21.2609 -0.974736 81.32 -21.7878 2.08098 -14.1793 18.3113 -85.1503 20.9118 -170.329 5.60682 75.4737 -7.60642 -1.53221 -79.5135 -26.7257 -3.40225 15.9608 3.01712 81.7871 -2.81319 -2.13781 -3.74131 179.606 -13.4934 0.867668 -1.81373 -2.64505 1.787 0.642036 90 2.3059e-014 2.38542e-014 -13.9942 9.17194 165.875 -46.3418 -0.249086 0.389054 5.68395 2.86469 -0.702243 90 -4.77083e-015 -6.55989e-015 
-53.5093 88.1042 -66.3981 89.887 0.832913 5.60503 1.46664 1.34866 0.00598867 2.93436 2.69756 -0.02243 2.93436 2.69754 -0.0224368 -10.2558 7.95186 -7.61451 60.7272 11.5653 -1.94418 -169.933 8.46305 -92.3526 -19.6725 -1.02217 80.6608 -21.8708 2.09596 -14.178 23.8569 -86.0156 26.4785 -170.23 5.62705 75.6987 -7.60144 -1.8932 -80.6938 -26.8389 -3.4222 16.0235 2.45985 80.7588 -2.26556 -3.04962 -3.75439 178.936 -15.2182 0.907293 -1.74711 -1.7913 1.98464 0.728831 90 3.10104e-014 3.02153e-014 -15.7849 5.49787 169.152 -49.1956 -0.264287 0.276778 8.21943 -0.694303 -1.35818 90 9.54166e-015 9.14409e-015 
-53.4396 88.0004 -65.4139 89.8346 1.265 5.33774 1.40124 1.27579 -0.0617926 2.8049 2.55011 -0.154727 2.8049 2.55014 -0.154738 -9.35101 8.49898 -7.03483 59.8047 12.3031 -3.04236 -170.811 9.24479 -91.7822 -18.3076 -0.785412 79.8264 -21.8685 2.0908 -14.1126 34.733 -87.0854 37.3806 -171.114 6.45036 76.2959 -8.00169 -2.28865 -81.8215 -26.7709 -3.40902 15.9979 2.73975 81.3418 -2.54096 -4.02572 -6.97585 177.998 -16.9723 0.909737 -1.74003 -1.39376 -1.36224 0.167864 90 -3.18055e-015 -7.95139e-016 -17.1409 0.561147 172.197 -51.4815 -0.227053 0.110685 10.7766 -7.71852 -1.71049 90 -5.96354e-015 -7.15625e-015 
-53.3739 87.6659 -64.4329 89.7426 1.70884 5.17273 1.32839 1.2684 -0.156547 2.66124 2.5332 -0.342429 2.66123 2.53322 -0.342443 -9.65191 8.28192 -6.92443 59.4394 12.2557 -2.48138 -170.559 8.97529 -91.6519 -17.0359 -0.590833 79.0072 -21.4853 2.02411 -13.8603 33.1479 -87.0291 35.7558 -170.886 6.19894 76.4168 -7.59035 -2.67882 -82.9441 -26.599 -3.36952 15.9149 2.80854 81.3614 -2.61092 -5.39468 -5.56238 177.536 -19.5301 0.952442 -1.61365 0.171708 -0.431811 0.433911 90 5.1684e-015 3.97569e-015 -17.3721 -4.78725 174.615 -52.2264 -0.206851 -0.0207679 11.3514 -13.8907 -1.54274 90 -5.36719e-015 -4.77083e-015 
-53.2278 87.4358 -63.3433 90.1469 1.73264 6.00395 1.23842 1.3958 -0.425611 2.48826 2.78234 -0.881548 2.48826 2.78237 -0.881565 -9.94525 8.14058 -7.27757 58.9325 12.1586 -2.11617 -170.217 8.73119 -91.965 -16.6752 -0.698445 78.0992 -20.9823 1.93348 -13.5571 25.6609 -86.5341 28.3244 -170.602 5.9556 76.0967 -7.85576 -3.20736 -83.6293 -26.6148 -3.36998 15.9177 3.20349 82.3724 -3.02003 -6.32884 -4.46305 176.269 -20.2999 0.986705 -1.53731 1.08886 1.27395 0.708213 90 -7.95139e-016 -2.38542e-015 -17.1005 -6.67936 175.871 -51.1867 -0.302761 -0.011859 7.73981 -17.2384 -2.13273 90 -1.19271e-014 -1.27222e-014 
-53.2758 87.3491 -62.2256 89.8038 1.22936 6.49729 1.26227 1.55166 -0.5751 2.54144 3.09068 -1.18479 2.54143 3.09065 -1.1848 -10.0171 8.56843 -7.09034 59.2723 12.3556 -3.13987 -170.097 9.20426 -91.8191 -15.8813 -0.467223 77.631 -20.7433 1.89704 -13.4095 20.2233 -85.8603 22.8573 -170.506 6.45264 76.2321 -8.48371 -3.80421 -84.0205 -26.2106 -3.26609 15.689 3.2019 82.2045 -3.01877 -5.7609 2.11131 176.386 -20.948 0.993437 -1.3518 3.67793 7.67511 1.33884 90 3.18055e-015 3.97569e-015 -14.7647 -5.70705 176.425 -48.5034 -0.344901 0.112924 8.83719 -7.08047 -1.83035 90 -1.19271e-014 -1.27222e-014 
-53.2789 87.3047 -61.1701 89.1476 1.11743 5.73428 1.37058 1.68011 -0.393146 2.75443 3.35079 -0.826776 2.75442 3.35079 -0.826784 -10.069 8.75649 -7.33185 59.3215 12.2245 -3.73272 -169.952 9.35764 -92.0244 -13.3901 -1.39993 77.9726 -20.1625 1.83332 -13.1386 11.5721 -83.3712 14.2507 -170.397 6.58653 75.9468 -9.06977 -3.93036 -83.7378 -25.4043 -3.06655 15.2291 3.08865 81.9864 -2.9043 -5.79337 2.80509 176.991 -22.6341 0.978764 -1.26964 5.6831 8.69771 1.29205 90 1.37161e-014 1.03368e-014 -12.3375 -4.82399 177.097 -45.6368 -0.388388 0.144309 9.04255 -7.11812 -1.84265 90 -2.70347e-014 -2.38542e-014 
-53.0093 87.2968 -60.0679 89.5385 1.64139 5.657 1.24592 1.62918 -0.240026 2.50017 3.25328 -0.515611 2.50017 3.25329 -0.515623 -10.0604 9.04974 -7.78769 59.694 12.3398 -4.37262 -169.874 9.54445 -92.493 -8.91677 -2.29105 80.0076 -20.2297 1.88932 -13.2428 8.11622 -81.5953 10.8186 -170.316 6.8171 75.4181 -9.83197 -4.25005 -82.4985 -24.462 -2.82818 14.684 2.25945 81.3617 -2.0699 -7.44879 3.60643 177.087 -24.9095 0.935049 -1.16431 8.01446 11.3592 1.11364 90 2.38542e-015 2.38542e-015 -11.616 -3.64644 176.606 -43.5563 -0.404592 0.153047 9.7356 -7.81651 -1.87241 90 -1.23246e-014 -1.27222e-014 
-52.7142 87.4209 -59.2058 89.8324 2.87077 5.02652 1.13752 1.51387 -0.00498557 2.27631 3.02776 -0.0399605 2.27631 3.02779 -0.0399699 -10.5385 8.97877 -7.50269 60.515 11.9197 -4.64942 -169.509 9.42261 -92.2741 -7.47018 -2.15023 81.7718 -20.301 1.92615 -13.3277 10.5481 -82.6145 13.1223 -169.892 6.74247 75.5871 -9.4513 -4.3295 -81.3125 -23.7936 -2.68142 14.3169 2.03954 80.6378 -1.81822 -9.76463 2.99912 178.27 -27.7008 0.863562 -1.05561 8.96273 16.5462 0.808379 90 2.60408e-014 2.38542e-014 -10.6659 -3.84812 176.68 -41.2405 -0.446549 0.152629 10.1016 -8.20577 -1.88782 90 1.0138e-014 7.95139e-015 
-52.4748 87.5618 -58.5854 89.7519 3.97702 3.71162 1.14531 1.40222 0.301164 2.28425 2.81066 0.574618 2.28425 2.81063 0.574607 -11.7905 8.75507 -7.00112 61.5116 11.7899 -4.17475 -168.426 9.08467 -91.9144 -8.01589 -1.74059 82.8186 -20.0912 1.90298 -13.246 14.1122 -83.594 16.5893 -168.745 6.40858 75.8782 -8.64516 -3.88706 -80.3638 -23.2855 -2.58754 14.0658 2.1005 79.9635 -1.87622 -11.7159 1.99628 -179.259 -30.9772 0.782715 -1.01151 10.5388 15.3921 0.725834 90 2.42517e-014 2.70347e-014 -9.1827 -4.18536 177.965 -38.5573 -0.522391 0.184685 9.95038 -6.18978 -1.82527 90 -2.11706e-014 -2.06736e-014 
-52.3373 87.9261 -57.8699 89.3782 4.2359 2.8716 1.22901 1.43765 0.478185 2.44714 2.88572 0.925989 2.44712 2.88568 0.92598 -11.5053 8.42674 -6.77687 59.7546 11.4724 -3.87869 -168.795 8.84605 -91.5799 -8.85551 -1.40093 83.2708 -19.5713 1.81935 -12.981 9.86796 -81.5915 12.3401 -169.071 6.15357 76.1287 -6.45877 -3.01622 -79.5774 -22.8365 -2.51218 13.8457 2.24252 79.1124 -1.99465 -12.3052 -0.057207 -176.793 -33.0226 0.83364 -1.12872 9.02655 5.66015 1.30939 90 8.74653e-015 8.59744e-015 -7.27821 -3.62521 178.858 -35.6242 -0.586453 0.26291 8.93778 -4.57135 -1.73359 90 -1.09332e-015 -1.59028e-015 
-52.1786 88.2244 -56.8408 89.1329 4.44968 2.82587 1.35397 1.39648 0.416703 2.69896 2.80285 0.800784 2.69894 2.80285 0.800774 -12.4906 8.1894 -7.61471 59.1545 13.6762 -0.638652 -167.777 8.12955 -92.3965 -9.54134 -1.17064 83.2582 -19.0881 1.74417 -12.7184 7.67727 -78.0746 9.96727 -168.022 5.42051 75.2426 -4.74694 -1.71728 -79.5944 -22.5973 -2.49506 13.7715 3.2927 80.9176 -3.11483 -12.6603 -1.33748 -174.469 -33.6006 0.837401 -1.20197 5.12642 -0.40083 0.899222 90 -4.77083e-015 -9.54166e-015 -6.1174 -3.56799 178.408 -33.6696 -0.607208 0.324104 8.36922 -3.71729 -1.6489 90 -2.63328e-014 -2.62396e-014 
-52.1669 88.5723 -55.7707 88.991 4.2927 3.30084 1.41869 1.36702 0.260254 2.83238 2.74057 0.486928 2.83237 2.74054 0.48692 -12.1867 7.99745 -6.6513 58.3779 11.9237 -2.3066 -168.211 8.26621 -91.3919 -9.01922 -0.846399 83.397 -19.0522 1.73653 -12.6705 7.74293 -77.4721 9.93455 -168.411 5.59643 76.2281 -3.3011 -0.766241 -79.7611 -22.7289 -2.54014 13.8799 4.08014 82.3762 -3.94468 -11.7254 -4.34891 -172.948 -32.33 0.797953 -1.29472 1.90512 -6.1207 -0.18302 90 9.54166e-015 7.95139e-015 -5.24787 -2.4455 177.442 -32.2946 -0.612237 0.39589 7.77052 -3.13869 -1.56928 90 1.11319e-014 1.11319e-014 
-52.1641 88.9186 -54.5256 89.0104 4.00939 3.664 1.4011 1.45943 0.031551 2.80279 2.91991 0.027532 2.80277 2.9199 0.0275218 -11.6195 7.76825 -6.97354 56.9952 12.6072 -0.905537 -168.771 7.97176 -91.5637 -8.21129 -0.633796 82.9183 -19.0882 1.74588 -12.6592 8.6524 -78.8041 10.9481 -168.962 5.31819 76.0924 -2.97798 -0.653953 -80.4397 -23.1578 -2.63609 14.1201 5.43069 83.9252 -5.29511 -10.8747 -5.68593 -170.711 -30.3878 0.714954 -1.33892 -1.60751 -6.36612 -0.89219 90 -9.54166e-015 -9.54166e-015 -4.33248 -1.64084 176.323 -30.5442 -0.613634 0.466323 7.09475 -3.27205 -1.53798 90 3.18055e-015 2.38542e-015 
-52.2176 89.1044 -53.1759 89.0586 3.71026 3.64787 1.33417 1.53871 -0.0477685 2.67108 3.07642 -0.131294 2.67107 3.07636 -0.131303 -11.5589 7.77391 -6.50531 57.3153 12.2465 -1.41205 -168.89 8.09734 -91.1088 -6.84871 -0.515024 82.8894 -19.156 1.75592 -12.6754 9.77219 -79.9388 12.0931 -169.089 5.47548 76.5906 -4.36097 -1.40964 -80.7382 -23.7624 -2.76348 14.4487 5.81105 84.3561 -5.6734 -9.98449 -6.87568 -168.095 -28.1904 0.60036 -1.34326 -7.20316 -4.55279 -1.4288 90 1.43125e-014 1.11319e-014 -3.36486 -0.419573 175.611 -28.9524 -0.611355 0.539688 6.65505 -2.89273 -1.43462 90 7.95139e-016 -1.59028e-015 
-52.2758 89.1921 -51.6489 89.2569 3.57254 3.47342 1.254 1.54966 -0.0540429 2.51091 3.09836 -0.140704 2.5109 3.09831 -0.140718 -11.6381 7.87995 -6.72467 57.6185 12.3729 -1.48564 -168.762 8.13987 -91.3425 -4.99 -0.646256 83.0055 -19.0705 1.75543 -12.6155 9.52004 -79.5999 11.867 -168.997 5.54841 76.3806 -6.791 -2.22356 -80.5167 -24.2091 -2.8493 14.6734 6.02469 84.7519 -5.88142 -9.01621 -8.07877 -165.605 -25.8517 0.462032 -1.33854 -12.1039 -4.11353 -2.07006 90 -1.59028e-014 -1.27222e-014 -2.68408 0.304717 174.877 -27.5695 -0.605358 0.598094 6.24609 -2.37179 -1.2989 90 -2.78299e-015 -4.77083e-015 
-52.3192 89.2565 -49.9349 89.5979 3.29296 3.42292 1.15318 1.64582 -0.0606011 2.30953 3.29057 -0.154278 2.30953 3.29056 -0.154289 -12.7607 8.15352 -6.21079 59.9536 12.2165 -2.37155 -167.683 8.41313 -91.0407 -4.23684 -0.701551 83.126 -18.9668 1.74147 -12.5264 11.1023 -79.3187 13.5894 -167.937 5.83466 76.6997 -8.89885 -3.04804 -80.1234 -24.4779 -2.89569 14.7988 5.70213 84.7606 -5.55141 -7.81881 -9.01856 -163.557 -23.6975 0.32651 -1.33943 -14.4155 -5.63509 -3.14862 90 0 -3.18055e-015 -2.39843 1.18743 173.761 -26.6046 -0.589177 0.642758 5.881 -2.63994 -1.2739 90 7.95139e-015 3.97569e-015 
-52.4137 89.256 -47.9789 89.791 3.28841 3.60618 1.07908 1.68425 -0.119046 2.16308 3.36647 -0.269853 2.16307 3.36645 -0.269864 -13.1207 8.20194 -6.01808 60.6097 12.0138 -2.71137 -167.34 8.47625 -90.8902 -3.64629 -0.783101 83.0728 -18.6997 1.70357 -12.3731 11.1859 -79.0997 13.6061 -167.609 5.9019 76.8396 -9.49094 -3.33863 -80.0157 -24.5075 -2.8913 14.7973 4.92035 84.2936 -4.76308 -6.34766 -10.1172 -162.144 -21.1427 0.176281 -1.35968 -17.6304 -6.7273 -4.33277 90 6.36111e-015 -1.59028e-015 -1.91095 2.22425 172.449 -25.8925 -0.566954 0.686303 5.56195 -1.86091 -1.09695 90 -3.18055e-015 -7.95139e-016 
